<?xml version="1.0" encoding="UTF-8" standalone="no"?>
<!-- Created with Inkscape (http://www.inkscape.org/) -->

<svg
   width="210mm"
   height="297mm"
   viewBox="0 0 210 297"
   version="1.1"
   id="svg5"
   inkscape:version="1.2 (dc2aedaf03, 2022-05-15)"
   sodipodi:docname="input_label.svg"
   xmlns:inkscape="http://www.inkscape.org/namespaces/inkscape"
   xmlns:sodipodi="http://sodipodi.sourceforge.net/DTD/sodipodi-0.dtd"
   xmlns="http://www.w3.org/2000/svg"
   xmlns:svg="http://www.w3.org/2000/svg">
  <sodipodi:namedview
     id="namedview7"
     pagecolor="#ffffff"
     bordercolor="#111111"
     borderopacity="1"
     inkscape:showpageshadow="0"
     inkscape:pageopacity="0"
     inkscape:pagecheckerboard="1"
     inkscape:deskcolor="#d1d1d1"
     inkscape:document-units="mm"
     showgrid="false"
     inkscape:zoom="1.6819304"
     inkscape:cx="197.39223"
     inkscape:cy="570.77272"
     inkscape:window-width="2560"
     inkscape:window-height="1375"
     inkscape:window-x="0"
     inkscape:window-y="0"
     inkscape:window-maximized="1"
     inkscape:current-layer="layer1" />
  <defs
     id="defs2" />
  <g
     inkscape:label="F.SilkS"
     inkscape:groupmode="layer"
     id="layer1"
     transform="translate(45.689178,64.681359)">
    <g
       aria-label="Unbalanced Input"
       id="text186"
       style="font-size:3.175px;line-height:1.25;font-family:'DejaVu Sans';-inkscape-font-specification:'DejaVu Sans';text-align:center;letter-spacing:0px;word-spacing:0px;text-anchor:middle;fill:#000000;fill-opacity:1;stroke:none;stroke-width:0.001;stroke-dasharray:none">
      <path
         d="m 45.445776,82.37997 h 0.314709 v 1.406116 q 0,0.37207 0.134876,0.536401 0.134875,0.162781 0.437182,0.162781 0.300757,0 0.435633,-0.162781 0.134875,-0.164331 0.134875,-0.536401 V 82.37997 h 0.31471 v 1.444873 q 0,0.452685 -0.224793,0.683679 -0.223242,0.230994 -0.660425,0.230994 -0.438733,0 -0.663525,-0.230994 -0.223242,-0.230994 -0.223242,-0.683679 z"
         id="path526"
         style="fill:#000000;fill-opacity:1;stroke:none;stroke-width:0.001;stroke-dasharray:none" />
      <path
         d="m 49.236242,83.646559 v 1.047998 h -0.285254 v -1.038696 q 0,-0.246497 -0.09612,-0.36897 -0.09612,-0.122473 -0.288355,-0.122473 -0.230993,0 -0.364318,0.147278 -0.133326,0.147278 -0.133326,0.401526 v 0.981335 h -0.286804 v -1.736328 h 0.286804 v 0.269751 q 0.10232,-0.15658 0.240296,-0.234094 0.139526,-0.07752 0.32091,-0.07752 0.299207,0 0.452686,0.186035 0.153479,0.184485 0.153479,0.544153 z"
         id="path528"
         style="fill:#000000;fill-opacity:1;stroke:none;stroke-width:0.001;stroke-dasharray:none" />
      <path
         d="m 51.051635,83.827943 q 0,-0.314709 -0.130225,-0.492993 -0.128674,-0.179834 -0.355017,-0.179834 -0.226342,0 -0.356567,0.179834 -0.128674,0.178284 -0.128674,0.492993 0,0.31471 0.128674,0.494544 0.130225,0.178284 0.356567,0.178284 0.226343,0 0.355017,-0.178284 0.130225,-0.179834 0.130225,-0.494544 z m -0.970483,-0.606164 q 0.08992,-0.155029 0.226342,-0.229443 0.137976,-0.07596 0.328662,-0.07596 0.31626,0 0.513147,0.251148 0.198438,0.251147 0.198438,0.660424 0,0.409278 -0.198438,0.660425 -0.196887,0.251148 -0.513147,0.251148 -0.190686,0 -0.328662,-0.07441 -0.136425,-0.07597 -0.226342,-0.230994 v 0.260449 H 49.794347 V 82.28231 h 0.286805 z"
         id="path530"
         style="fill:#000000;fill-opacity:1;stroke:none;stroke-width:0.001;stroke-dasharray:none" />
      <path
         d="m 52.609679,83.821742 q -0.345715,0 -0.47904,0.07906 -0.133325,0.07906 -0.133325,0.269751 0,0.151929 0.09922,0.241846 0.100769,0.08837 0.272852,0.08837 0.237195,0 0.379822,-0.167432 0.144177,-0.168982 0.144177,-0.448035 v -0.06356 z m 0.568958,-0.117822 v 0.990637 h -0.285254 v -0.26355 q -0.09767,0.15813 -0.243396,0.234095 -0.145728,0.07441 -0.356567,0.07441 -0.266651,0 -0.424781,-0.148828 -0.156579,-0.150379 -0.156579,-0.401526 0,-0.293006 0.195337,-0.441834 0.196887,-0.148828 0.58601,-0.148828 h 0.399976 v -0.02791 q 0,-0.196887 -0.130225,-0.303858 -0.128674,-0.10852 -0.362768,-0.10852 -0.148828,0 -0.289905,0.03566 -0.141077,0.03566 -0.271301,0.10697 v -0.26355 q 0.156579,-0.06046 0.303857,-0.08992 0.147278,-0.03101 0.286804,-0.03101 0.376722,0 0.562757,0.195337 0.186035,0.195337 0.186035,0.592212 z"
         id="path532"
         style="fill:#000000;fill-opacity:1;stroke:none;stroke-width:0.001;stroke-dasharray:none" />
      <path
         d="m 53.766198,82.282301 h 0.285254 v 2.412256 h -0.285254 z"
         id="path534"
         style="fill:#000000;fill-opacity:1;stroke:none;stroke-width:0.001;stroke-dasharray:none" />
      <path
         d="m 55.437413,83.821742 q -0.345715,0 -0.47904,0.07906 -0.133325,0.07906 -0.133325,0.269751 0,0.151929 0.09922,0.241846 0.100769,0.08837 0.272852,0.08837 0.237195,0 0.379822,-0.167432 0.144177,-0.168982 0.144177,-0.448035 v -0.06356 z m 0.568958,-0.117822 v 0.990637 h -0.285254 v -0.26355 q -0.09767,0.15813 -0.243396,0.234095 -0.145728,0.07441 -0.356567,0.07441 -0.266651,0 -0.424781,-0.148828 -0.156579,-0.150379 -0.156579,-0.401526 0,-0.293006 0.195337,-0.441834 0.196887,-0.148828 0.58601,-0.148828 h 0.399976 v -0.02791 q 0,-0.196887 -0.130225,-0.303858 -0.128674,-0.10852 -0.362768,-0.10852 -0.148828,0 -0.289905,0.03566 -0.141077,0.03566 -0.271301,0.10697 v -0.26355 q 0.156579,-0.06046 0.303857,-0.08992 0.147278,-0.03101 0.286804,-0.03101 0.376722,0 0.562757,0.195337 0.186035,0.195337 0.186035,0.592212 z"
         id="path536"
         style="fill:#000000;fill-opacity:1;stroke:none;stroke-width:0.001;stroke-dasharray:none" />
      <path
         d="m 58.037255,83.646559 v 1.047998 h -0.285254 v -1.038696 q 0,-0.246497 -0.09612,-0.36897 -0.09612,-0.122473 -0.288355,-0.122473 -0.230993,0 -0.364319,0.147278 -0.133325,0.147278 -0.133325,0.401526 v 0.981335 H 56.58308 v -1.736328 h 0.286804 v 0.269751 q 0.102319,-0.15658 0.240296,-0.234094 0.139526,-0.07752 0.32091,-0.07752 0.299207,0 0.452686,0.186035 0.153479,0.184485 0.153479,0.544153 z"
         id="path538"
         style="fill:#000000;fill-opacity:1;stroke:none;stroke-width:0.001;stroke-dasharray:none" />
      <path
         d="m 59.855749,83.024892 v 0.26665 q -0.120923,-0.06666 -0.243396,-0.09922 -0.120923,-0.03411 -0.244947,-0.03411 -0.277502,0 -0.430981,0.176733 -0.153479,0.175183 -0.153479,0.492993 0,0.31781 0.153479,0.494544 0.153479,0.175183 0.430981,0.175183 0.124024,0 0.244947,-0.03256 0.122473,-0.03411 0.243396,-0.100769 v 0.26355 q -0.119373,0.05581 -0.248047,0.08371 -0.127124,0.02791 -0.271302,0.02791 -0.392224,0 -0.623217,-0.246497 -0.230994,-0.246496 -0.230994,-0.665076 0,-0.42478 0.232544,-0.668176 0.234094,-0.243396 0.640271,-0.243396 0.131775,0 0.257349,0.02791 0.125573,0.02635 0.243396,0.08062 z"
         id="path540"
         style="fill:#000000;fill-opacity:1;stroke:none;stroke-width:0.001;stroke-dasharray:none" />
      <path
         d="m 61.837023,83.75508 v 0.139526 h -1.311547 q 0.0186,0.294556 0.176733,0.449585 0.15968,0.153479 0.443384,0.153479 0.164331,0 0.31781,-0.04031 0.155029,-0.04031 0.306958,-0.120922 v 0.26975 q -0.153479,0.06511 -0.31471,0.09922 -0.16123,0.03411 -0.327112,0.03411 -0.415478,0 -0.658874,-0.241846 -0.241846,-0.241846 -0.241846,-0.654224 0,-0.42633 0.229444,-0.675927 0.230993,-0.251148 0.621667,-0.251148 0.350366,0 0.553455,0.226343 0.204638,0.224792 0.204638,0.612366 z m -0.285254,-0.08372 q -0.0031,-0.234094 -0.131774,-0.373621 -0.127124,-0.139526 -0.337964,-0.139526 -0.238745,0 -0.382923,0.134875 -0.142627,0.134876 -0.164331,0.379822 z"
         id="path542"
         style="fill:#000000;fill-opacity:1;stroke:none;stroke-width:0.001;stroke-dasharray:none" />
      <path
         d="m 63.447778,83.221779 v -0.939478 h 0.285254 v 2.412256 h -0.285254 v -0.260449 q -0.08992,0.155029 -0.227893,0.230994 -0.136426,0.07441 -0.328662,0.07441 -0.31471,0 -0.513147,-0.251148 -0.196888,-0.251147 -0.196888,-0.660425 0,-0.409277 0.196888,-0.660424 0.198437,-0.251148 0.513147,-0.251148 0.192236,0 0.328662,0.07596 0.137976,0.07441 0.227893,0.229443 z m -0.972034,0.606164 q 0,0.31471 0.128674,0.494544 0.130225,0.178284 0.356568,0.178284 0.226343,0 0.356567,-0.178284 0.130225,-0.179834 0.130225,-0.494544 0,-0.314709 -0.130225,-0.492993 -0.130224,-0.179834 -0.356567,-0.179834 -0.226343,0 -0.356568,0.179834 -0.128674,0.178284 -0.128674,0.492993 z"
         id="path544"
         style="fill:#000000;fill-opacity:1;stroke:none;stroke-width:0.001;stroke-dasharray:none" />
      <path
         d="m 65.342236,82.37997 h 0.313159 v 2.314587 h -0.313159 z"
         id="path546"
         style="fill:#000000;fill-opacity:1;stroke:none;stroke-width:0.001;stroke-dasharray:none" />
      <path
         d="m 67.709533,83.646559 v 1.047998 h -0.285254 v -1.038696 q 0,-0.246497 -0.09612,-0.36897 -0.09612,-0.122473 -0.288354,-0.122473 -0.230994,0 -0.364319,0.147278 -0.133325,0.147278 -0.133325,0.401526 v 0.981335 h -0.286805 v -1.736328 h 0.286805 v 0.269751 q 0.102319,-0.15658 0.240295,-0.234094 0.139526,-0.07752 0.320911,-0.07752 0.299206,0 0.452685,0.186035 0.153479,0.184485 0.153479,0.544153 z"
         id="path548"
         style="fill:#000000;fill-opacity:1;stroke:none;stroke-width:0.001;stroke-dasharray:none" />
      <path
         d="m 68.554442,84.434108 v 0.920874 h -0.286804 v -2.396753 h 0.286804 v 0.26355 q 0.08992,-0.155029 0.226343,-0.229443 0.137976,-0.07596 0.328662,-0.07596 0.31626,0 0.513147,0.251148 0.198437,0.251147 0.198437,0.660424 0,0.409278 -0.198437,0.660425 -0.196887,0.251148 -0.513147,0.251148 -0.190686,0 -0.328662,-0.07441 -0.136426,-0.07597 -0.226343,-0.230994 z m 0.970483,-0.606165 q 0,-0.314709 -0.130224,-0.492993 -0.128675,-0.179834 -0.355017,-0.179834 -0.226343,0 -0.356568,0.179834 -0.128674,0.178284 -0.128674,0.492993 0,0.31471 0.128674,0.494544 0.130225,0.178284 0.356568,0.178284 0.226342,0 0.355017,-0.178284 0.130224,-0.179834 0.130224,-0.494544 z"
         id="path550"
         style="fill:#000000;fill-opacity:1;stroke:none;stroke-width:0.001;stroke-dasharray:none" />
      <path
         d="m 70.264415,84.009328 v -1.051099 h 0.285254 v 1.040247 q 0,0.246496 0.09612,0.37052 0.09612,0.122473 0.288355,0.122473 0.230993,0 0.364319,-0.147278 0.134875,-0.147278 0.134875,-0.401526 v -0.984436 h 0.285254 v 1.736328 h -0.285254 v -0.26665 q -0.10387,0.15813 -0.241846,0.235644 -0.136425,0.07596 -0.31781,0.07596 -0.299206,0 -0.454236,-0.186035 -0.155029,-0.186036 -0.155029,-0.544153 z m 0.717786,-1.092957 z"
         id="path552"
         style="fill:#000000;fill-opacity:1;stroke:none;stroke-width:0.001;stroke-dasharray:none" />
      <path
         d="m 72.588305,82.465236 v 0.492993 h 0.587562 v 0.221692 h -0.587562 v 0.942578 q 0,0.21239 0.05736,0.272852 0.05891,0.06046 0.237195,0.06046 h 0.293006 v 0.238745 H 72.88286 q -0.330212,0 -0.455786,-0.122473 Q 72.3015,84.44806 72.3015,84.122498 V 83.17992 H 72.092211 V 82.958228 H 72.3015 v -0.492993 z"
         id="path554"
         style="fill:#000000;fill-opacity:1;stroke:none;stroke-width:0.001;stroke-dasharray:none" />
    </g>
  </g>
</svg>
