<?xml version="1.0" encoding="UTF-8" standalone="no"?>
<!-- Created with Inkscape (http://www.inkscape.org/) -->

<svg
   version="1.1"
   id="svg48"
   width="20mm"
   height="40mm"
   viewBox="0 0 1000 2000"
   sodipodi:docname="mini-din-4.svg"
   inkscape:version="1.2 (dc2aedaf03, 2022-05-15)"
   xml:space="preserve"
   xmlns:inkscape="http://www.inkscape.org/namespaces/inkscape"
   xmlns:sodipodi="http://sodipodi.sourceforge.net/DTD/sodipodi-0.dtd"
   xmlns="http://www.w3.org/2000/svg"
   xmlns:svg="http://www.w3.org/2000/svg"><defs
     id="defs52" /><sodipodi:namedview
     id="namedview50"
     pagecolor="#ffffff"
     bordercolor="#111111"
     borderopacity="1"
     inkscape:showpageshadow="0"
     inkscape:pageopacity="0"
     inkscape:pagecheckerboard="1"
     inkscape:deskcolor="#d1d1d1"
     showgrid="false"
     inkscape:zoom="8"
     inkscape:cx="20.375"
     inkscape:cy="104"
     inkscape:window-width="2560"
     inkscape:window-height="1375"
     inkscape:window-x="0"
     inkscape:window-y="0"
     inkscape:window-maximized="1"
     inkscape:current-layer="layer1"
     inkscape:document-units="mm" /><g
     inkscape:groupmode="layer"
     id="layer1"
     inkscape:label="F.SilkS"
     transform="translate(-50.034515,-50.034515)"><g
       id="g2100"
       style="fill:none;stroke:#000000;stroke-opacity:1"
       transform="translate(38.034494,1252.0897)" /><g
       id="g13985"><g
         id="g13935"><g
           id="g3893"
           transform="matrix(0.24179371,0,0,0.24179371,417.03963,1640.2913)"
           style="fill:none;stroke:#000000;stroke-width:4.13577;stroke-opacity:1"><path
             id="path1886"
             style="fill:none;stroke:#000000;stroke-width:41.3577;stroke-linecap:round;stroke-linejoin:round;stroke-opacity:1"
             d="m 299.79278,547.57758 a 44.863747,44.863747 0 0 1 -44.86375,44.86374 44.863747,44.863747 0 0 1 -44.86375,-44.86374 44.863747,44.863747 0 0 1 44.86375,-44.86375 44.863747,44.863747 0 0 1 44.86375,44.86375 z"
             transform="translate(38.034494)" /><path
             id="path1886-6-7"
             style="fill:none;stroke:#000000;stroke-width:41.3577;stroke-linecap:round;stroke-linejoin:round;stroke-opacity:1"
             d="m 817.88561,338.84726 a 44.863747,44.863747 0 0 1 -44.86375,44.86375 44.863747,44.863747 0 0 1 -44.86375,-44.86375 44.863747,44.863747 0 0 1 44.86375,-44.86375 44.863747,44.863747 0 0 1 44.86375,44.86375 z" /><path
             id="path1886-7"
             style="fill:none;stroke:#000000;stroke-width:41.3577;stroke-linecap:round;stroke-linejoin:round;stroke-opacity:1"
             d="m 813.93473,547.57758 c 0,24.77756 -20.08619,44.86374 -44.86375,44.86374 -24.77756,0 -44.86374,-20.08618 -44.86374,-44.86374 0,-24.77756 20.08618,-44.86375 44.86374,-44.86375 24.77757,0 44.86375,20.08618 44.86375,44.86375 z"
             sodipodi:nodetypes="sssss"
             transform="translate(38.034494)" /><path
             id="path2235"
             style="fill:none;stroke:#000000;stroke-width:41.3577;stroke-linecap:round;stroke-linejoin:round;stroke-dasharray:none;stroke-opacity:1"
             d="M 463.10707,205.47024 V 121.62818 C 284.07559,161.31764 150.18697,321.02361 150.18697,512 c 0,69.37197 18.02763,136.88557 51.48838,196.27696 h 150.86707 v 151.3948 c 59.68482,33.90115 127.64663,52.17577 197.49208,52.17577 69.86556,0 137.84633,-18.28514 197.54365,-52.2051 V 708.32862 H 898.36451 C 931.84392,648.92469 949.88203,581.39201 949.88203,512 v 0 c 0,-106.04583 -42.12688,-207.74915 -117.11263,-282.7349 C 778.62094,175.11664 710.54039,138.10237 636.95359,121.71256 v 83.75768 z"
             sodipodi:nodetypes="cscccscccssscccc" /><path
             style="fill:none;stroke:#000000;stroke-width:41.3577;stroke-linecap:round;stroke-linejoin:round;stroke-dasharray:none;stroke-opacity:1"
             d="M 479.66762,566.24378 V 755.05874 H 620.40138 V 566.24378 Z"
             id="path2331"
             sodipodi:nodetypes="ccccc" /><path
             id="path1886-6-8"
             style="fill:none;stroke:#000000;stroke-width:41.3577;stroke-linecap:round;stroke-linejoin:round;stroke-opacity:1"
             d="m 371.91094,338.84726 a 44.863747,44.863747 0 0 1 -44.8638,44.86375 44.863747,44.863747 0 0 1 -44.8637,-44.86375 44.863747,44.863747 0 0 1 44.8637,-44.86375 44.863747,44.863747 0 0 1 44.8638,44.86375 z" /></g><g
           aria-label="GND"
           id="text3998-9"
           style="font-size:105.833px;line-height:1.25;font-family:'DejaVu Sans';-inkscape-font-specification:'DejaVu Sans, Normal';text-align:center;letter-spacing:0px;word-spacing:0px;text-anchor:middle;fill:none;stroke:#000000;stroke-width:13.2292;stroke-opacity:1"
           transform="translate(238.22576,1645.1457)"><path
             d="M 491.84701,239.66278 V 218.9406 h -17.05317 v -8.57826 h 27.38842 v 33.12449 q -6.04612,4.28913 -13.33248,6.51121 -7.28635,2.1704 -15.55456,2.1704 -18.08669,0 -28.31859,-10.54196 -10.18023,-10.59363 -10.18023,-29.45547 0,-18.91352 10.18023,-29.45547 10.2319,-10.59364 28.31859,-10.59364 7.54474,0 14.31433,1.86035 6.82127,1.86034 12.55734,5.47768 v 11.1104 q -5.78775,-4.90925 -12.29896,-7.38971 -6.51121,-2.48046 -13.69421,-2.48046 -14.1593,0 -21.29062,7.90647 -7.07965,7.90647 -7.07965,23.56438 0,15.60623 7.07965,23.5127 7.13132,7.90647 21.29062,7.90647 5.52936,0 9.87017,-0.93017 4.34081,-0.98185 7.80312,-2.99723 z"
             style="fill:#000000;stroke:none"
             id="path4202-7" /><path
             d="m 521.2508,173.51716 h 14.05595 l 34.20969,64.54366 v -64.54366 h 10.12855 v 77.15267 h -14.05595 l -34.20969,-64.54366 v 64.54366 H 521.2508 Z"
             style="fill:#000000;stroke:none"
             id="path4199-5" /><path
             d="m 610.85745,182.09542 v 59.99615 h 12.60901 q 15.96797,0 23.35768,-7.23468 7.44138,-7.23468 7.44138,-22.84091 0,-15.50288 -7.44138,-22.68588 -7.38971,-7.23468 -23.35768,-7.23468 z m -10.4386,-8.57826 h 21.44565 q 22.4275,0 32.91778,9.3534 10.49029,9.30173 10.49029,29.14542 0,19.94704 -10.54196,29.30045 -10.54196,9.3534 -32.86611,9.3534 h -21.44565 z"
             style="fill:#000000;stroke:none"
             id="path4196-3" /></g><g
           aria-label="-12"
           id="text4052"
           style="font-size:105.833px;line-height:1.25;font-family:'DejaVu Sans';-inkscape-font-specification:'DejaVu Sans, Normal';text-align:center;letter-spacing:0px;word-spacing:0px;text-anchor:middle;fill:none;stroke:#000000;stroke-width:13.2292;stroke-opacity:1"
           transform="translate(-165.15423,1082.0064)"><path
             d="m 818.67632,596.12256 h 27.85351 v 8.47491 h -27.85351 z"
             style="fill:#000000;stroke:none"
             id="path4184" /><path
             d="m 864.82323,620.56544 h 17.05317 v -58.85927 l -18.55178,3.72069 v -9.50844 l 18.44843,-3.72069 h 10.4386 v 68.36771 h 17.05317 v 8.78496 h -44.44159 z"
             style="fill:#000000;stroke:none"
             id="path4181" /><path
             d="m 939.34042,620.56544 h 36.43177 v 8.78496 h -48.98911 v -8.78496 q 5.94278,-6.14948 16.17468,-16.48473 10.28357,-10.38693 12.91906,-13.38416 5.0126,-5.63271 6.9763,-9.50843 2.01538,-3.9274 2.01538,-7.69976 0,-6.14948 -4.34081,-10.0252 -4.28913,-3.87572 -11.21375,-3.87572 -4.90925,0 -10.38693,1.70532 -5.42601,1.70531 -11.62716,5.16762 v -10.54196 q 6.3045,-2.53213 11.78219,-3.82404 5.47768,-1.29191 10.02519,-1.29191 11.9889,0 19.12022,5.99445 7.13133,5.99445 7.13133,16.01964 0,4.75422 -1.80867,9.04335 -1.75699,4.23746 -6.45954,10.0252 -1.2919,1.49861 -8.21652,8.68161 -6.92462,7.13133 -19.53363,19.99872 z"
             style="fill:#000000;stroke:none"
             id="path4178" /></g><g
           aria-label="+12"
           id="text3994"
           style="font-size:105.833px;line-height:1.25;font-family:'DejaVu Sans';-inkscape-font-specification:'DejaVu Sans, Normal';text-align:center;letter-spacing:0px;word-spacing:0px;text-anchor:middle;fill:none;stroke:#000000;stroke-width:13.2292;stroke-opacity:1"
           transform="translate(142.25916,1082.0064)"><path
             d="m 121.19471,562.99807 v 28.78368 h 28.78368 v 8.78497 h -28.78368 v 28.78368 h -8.68162 V 600.56672 H 83.729412 v -8.78497 h 28.783678 v -28.78368 z"
             style="fill:#000000;stroke:none"
             id="path4193" /><path
             d="m 174.31791,620.56544 h 17.05317 v -58.85927 l -18.55178,3.72069 v -9.50844 l 18.44843,-3.72069 h 10.4386 v 68.36771 h 17.05317 v 8.78496 h -44.44159 z"
             style="fill:#000000;stroke:none"
             id="path4190" /><path
             d="m 248.83509,620.56544 h 36.43177 v 8.78496 h -48.98911 v -8.78496 q 5.94277,-6.14948 16.17467,-16.48473 10.28358,-10.38693 12.91907,-13.38416 5.0126,-5.63271 6.9763,-9.50843 2.01537,-3.9274 2.01537,-7.69976 0,-6.14948 -4.3408,-10.0252 -4.28913,-3.87572 -11.21375,-3.87572 -4.90925,0 -10.38693,1.70532 -5.42601,1.70531 -11.62717,5.16762 v -10.54196 q 6.30451,-2.53213 11.78219,-3.82404 5.47769,-1.29191 10.0252,-1.29191 11.9889,0 19.12022,5.99445 7.13133,5.99445 7.13133,16.01964 0,4.75422 -1.80867,9.04335 -1.757,4.23746 -6.45954,10.0252 -1.2919,1.49861 -8.21652,8.68161 -6.92462,7.13133 -19.53363,19.99872 z"
             style="fill:#000000;stroke:none"
             id="path4187" /></g><g
           aria-label="GND"
           id="text3998"
           style="font-size:105.833px;line-height:1.25;font-family:'DejaVu Sans';-inkscape-font-specification:'DejaVu Sans, Normal';text-align:center;letter-spacing:0px;word-spacing:0px;text-anchor:middle;fill:none;stroke:#000000;stroke-width:13.2292;stroke-opacity:1"
           transform="translate(-236.12292,1645.1457)"><path
             d="M 491.84701,239.66278 V 218.9406 h -17.05317 v -8.57826 h 27.38842 v 33.12449 q -6.04612,4.28913 -13.33248,6.51121 -7.28635,2.1704 -15.55456,2.1704 -18.08669,0 -28.31859,-10.54196 -10.18023,-10.59363 -10.18023,-29.45547 0,-18.91352 10.18023,-29.45547 10.2319,-10.59364 28.31859,-10.59364 7.54474,0 14.31433,1.86035 6.82127,1.86034 12.55734,5.47768 v 11.1104 q -5.78775,-4.90925 -12.29896,-7.38971 -6.51121,-2.48046 -13.69421,-2.48046 -14.1593,0 -21.29062,7.90647 -7.07965,7.90647 -7.07965,23.56438 0,15.60623 7.07965,23.5127 7.13132,7.90647 21.29062,7.90647 5.52936,0 9.87017,-0.93017 4.34081,-0.98185 7.80312,-2.99723 z"
             style="fill:#000000;stroke:none"
             id="path4202" /><path
             d="m 521.2508,173.51716 h 14.05595 l 34.20969,64.54366 v -64.54366 h 10.12855 v 77.15267 h -14.05595 l -34.20969,-64.54366 v 64.54366 H 521.2508 Z"
             style="fill:#000000;stroke:none"
             id="path4199" /><path
             d="m 610.85745,182.09542 v 59.99615 h 12.60901 q 15.96797,0 23.35768,-7.23468 7.44138,-7.23468 7.44138,-22.84091 0,-15.50288 -7.44138,-22.68588 -7.38971,-7.23468 -23.35768,-7.23468 z m -10.4386,-8.57826 h 21.44565 q 22.4275,0 32.91778,9.3534 10.49029,9.30173 10.49029,29.14542 0,19.94704 -10.54196,29.30045 -10.54196,9.3534 -32.86611,9.3534 h -21.44565 z"
             style="fill:#000000;stroke:none"
             id="path4196" /></g></g><g
         aria-label="Power Output"
         id="text8942"
         style="font-size:141.111px;text-align:center;letter-spacing:0px;word-spacing:0px;text-anchor:middle;fill:#000000;fill-opacity:1;stroke:none;stroke-width:0.05;stroke-dasharray:none"><path
           d="m 91.733847,656.55552 v 38.65394 h 17.501073 q 9.71516,0 15.0206,-5.02983 5.30544,-5.02984 5.30544,-14.33159 0,-9.23285 -5.30544,-14.26268 -5.30544,-5.02984 -15.0206,-5.02984 z m -13.918174,-11.4377 h 31.419247 q 17.29436,0 26.1138,7.85481 8.88834,7.78591 8.88834,22.87541 0,15.22731 -8.88834,23.01322 -8.81944,7.78591 -26.1138,7.78591 H 91.733847 v 41.34111 H 77.815673 Z"
           style="-inkscape-font-specification:'DejaVu Sans';fill:#000000;fill-opacity:1;stroke:none;stroke-width:0.05;stroke-dasharray:none"
           id="path8944" /><path
           d="m 187.23181,679.70655 q -10.19747,0 -16.12303,7.99261 -5.92556,7.92371 -5.92556,21.77299 0,13.84927 5.85666,21.84188 5.92556,7.92372 16.19193,7.92372 10.12857,0 16.05413,-7.99262 5.92556,-7.99261 5.92556,-21.77298 0,-13.71147 -5.92556,-21.70409 -5.92556,-8.06151 -16.05413,-8.06151 z m 0,-10.74869 q 16.53645,0 25.976,10.74869 9.43955,10.74869 9.43955,29.7656 0,18.94801 -9.43955,29.7656 -9.43955,10.74868 -25.976,10.74868 -16.60534,0 -26.0449,-10.74868 -9.37065,-10.81759 -9.37065,-29.7656 0,-19.01691 9.37065,-29.7656 9.43956,-10.74869 26.0449,-10.74869 z"
           style="-inkscape-font-specification:'DejaVu Sans';fill:#000000;fill-opacity:1;stroke:none;stroke-width:0.05;stroke-dasharray:none"
           id="path8946" /><path
           d="m 236.28994,670.81821 h 12.67794 l 15.84743,60.22022 15.77852,-60.22022 h 14.9517 l 15.84743,60.22022 15.77852,-60.22022 h 12.67794 l -20.18824,77.17007 h -14.9517 l -16.60535,-63.2519 -16.67425,63.2519 h -14.9517 z"
           style="-inkscape-font-specification:'DejaVu Sans';fill:#000000;fill-opacity:1;stroke:none;stroke-width:0.05;stroke-dasharray:none"
           id="path8948" /><path
           d="m 425.081,706.23376 v 6.20117 h -58.29097 q 0.82682,13.09135 7.85481,19.98153 7.09689,6.82129 19.70593,6.82129 7.3036,0 14.12488,-1.79145 6.89018,-1.79145 13.64257,-5.37435 v 11.98893 q -6.82129,2.89387 -13.98708,4.40971 -7.16579,1.51584 -14.53829,1.51584 -18.4657,0 -29.28329,-10.74868 -10.74869,-10.74869 -10.74869,-29.07659 0,-18.948 10.19748,-30.0412 10.26637,-11.1621 27.62964,-11.1621 15.57182,0 24.59796,10.05967 9.09505,9.99077 9.09505,27.21623 z m -12.67795,-3.7207 q -0.1378,-10.40418 -5.85665,-16.60535 -5.64995,-6.20116 -15.02061,-6.20116 -10.61088,0 -17.01875,5.99446 -6.33897,5.99446 -7.3036,16.88095 z"
           style="-inkscape-font-specification:'DejaVu Sans';fill:#000000;fill-opacity:1;stroke:none;stroke-width:0.05;stroke-dasharray:none"
           id="path8950" /><path
           d="m 490.60667,682.66933 q -2.13596,-1.24024 -4.68533,-1.79145 -2.48046,-0.62012 -5.51215,-0.62012 -10.74868,0 -16.53644,7.02799 -5.71885,6.95909 -5.71885,20.05044 v 40.65209 h -12.74685 v -77.17007 h 12.74685 v 11.98892 q 3.9963,-7.02799 10.40418,-10.40418 6.40787,-3.44509 15.57181,-3.44509 1.30914,0 2.89388,0.2067 1.58474,0.13781 3.514,0.48232 z"
           style="-inkscape-font-specification:'DejaVu Sans';fill:#000000;fill-opacity:1;stroke:none;stroke-width:0.05;stroke-dasharray:none"
           id="path8952" /><path
           d="m 591.06556,654.55737 q -15.15841,0 -24.11565,11.2999 -8.88834,11.29991 -8.88834,30.79913 0,19.43032 8.88834,30.73023 8.95724,11.2999 24.11565,11.2999 15.1584,0 23.97784,-11.2999 8.88834,-11.29991 8.88834,-30.73023 0,-19.49922 -8.88834,-30.79913 -8.81944,-11.2999 -23.97784,-11.2999 z m 0,-11.2999 q 21.63518,0 34.58873,14.53829 12.95354,14.46939 12.95354,38.86064 0,24.32236 -12.95354,38.86065 -12.95355,14.46938 -34.58873,14.46938 -21.70409,0 -34.72654,-14.46938 -12.95354,-14.46939 -12.95354,-38.86065 0,-24.39125 12.95354,-38.86064 13.02245,-14.53829 34.72654,-14.53829 z"
           style="-inkscape-font-specification:'DejaVu Sans';fill:#000000;fill-opacity:1;stroke:none;stroke-width:0.05;stroke-dasharray:none"
           id="path8954" /><path
           d="m 658.52045,717.53366 v -46.71545 h 12.67794 v 46.23314 q 0,10.95539 4.27191,16.46754 4.27192,5.44325 12.81575,5.44325 10.26637,0 16.19193,-6.54568 5.99446,-6.54567 5.99446,-17.84558 v -43.75267 h 12.67794 v 77.17007 h -12.67794 v -11.85112 q -4.61642,7.02799 -10.74868,10.47308 -6.06337,3.37619 -14.12488,3.37619 -13.29806,0 -20.18825,-8.26822 -6.89018,-8.26822 -6.89018,-24.18455 z m 31.90156,-48.5758 z"
           style="-inkscape-font-specification:'DejaVu Sans';fill:#000000;fill-opacity:1;stroke:none;stroke-width:0.05;stroke-dasharray:none"
           id="path8956" /><path
           d="m 761.80435,648.90742 v 21.91079 h 26.1138 v 9.85296 h -26.1138 v 41.89233 q 0,9.43955 2.54937,12.12672 2.61827,2.68718 10.54198,2.68718 h 13.02245 v 10.61088 H 774.8957 q -14.67609,0 -20.25714,-5.44325 -5.58105,-5.51214 -5.58105,-19.98153 v -41.89233 h -9.30175 v -9.85296 h 9.30175 v -21.91079 z"
           style="-inkscape-font-specification:'DejaVu Sans';fill:#000000;fill-opacity:1;stroke:none;stroke-width:0.05;stroke-dasharray:none"
           id="path8958" /><path
           d="m 816.85693,736.41277 v 40.9277 H 804.11009 V 670.81821 h 12.74684 v 11.71331 q 3.99631,-6.89018 10.05967,-10.19747 6.13227,-3.37619 14.60719,-3.37619 14.05598,0 22.80652,11.1621 8.81943,11.1621 8.81943,29.35219 0,18.19008 -8.81943,29.35218 -8.75054,11.1621 -22.80652,11.1621 -8.47492,0 -14.60719,-3.30728 -6.06336,-3.37619 -10.05967,-10.26638 z m 43.13256,-26.94062 q 0,-13.98708 -5.78776,-21.91079 -5.71885,-7.99262 -15.77852,-7.99262 -10.05967,0 -15.84743,7.99262 -5.71885,7.92371 -5.71885,21.91079 0,13.98707 5.71885,21.97969 5.78776,7.92371 15.84743,7.92371 10.05967,0 15.77852,-7.92371 5.78776,-7.99262 5.78776,-21.97969 z"
           style="-inkscape-font-specification:'DejaVu Sans';fill:#000000;fill-opacity:1;stroke:none;stroke-width:0.05;stroke-dasharray:none"
           id="path8960" /><path
           d="m 892.85565,717.53366 v -46.71545 h 12.67794 v 46.23314 q 0,10.95539 4.27192,16.46754 4.27191,5.44325 12.81574,5.44325 10.26638,0 16.19194,-6.54568 5.99446,-6.54567 5.99446,-17.84558 v -43.75267 h 12.67794 v 77.17007 h -12.67794 v -11.85112 q -4.61643,7.02799 -10.74869,10.47308 -6.06336,3.37619 -14.12488,3.37619 -13.29806,0 -20.18824,-8.26822 -6.89019,-8.26822 -6.89019,-24.18455 z m 31.90156,-48.5758 z"
           style="-inkscape-font-specification:'DejaVu Sans';fill:#000000;fill-opacity:1;stroke:none;stroke-width:0.05;stroke-dasharray:none"
           id="path8962" /><path
           d="m 996.13956,648.90742 v 21.91079 h 26.11384 v 9.85296 h -26.11384 v 41.89233 q 0,9.43955 2.54936,12.12672 2.61828,2.68718 10.54198,2.68718 h 13.0225 v 10.61088 h -13.0225 q -14.67609,0 -20.25714,-5.44325 -5.58105,-5.51214 -5.58105,-19.98153 v -41.89233 h -9.30175 v -9.85296 h 9.30175 v -21.91079 z"
           style="-inkscape-font-specification:'DejaVu Sans';fill:#000000;fill-opacity:1;stroke:none;stroke-width:0.05;stroke-dasharray:none"
           id="path8964" /></g></g></g><g
     inkscape:groupmode="layer"
     id="layer4"
     inkscape:label="F.Fab"><path
       style="fill:none;stroke:#000000;stroke-width:0.132292;stroke-linecap:butt;stroke-linejoin:miter;stroke-dasharray:none;stroke-opacity:1"
       d="m 516.51012,1714.0552 h -16.51013 v -22.9859"
       id="path4502"
       sodipodi:nodetypes="ccc" /></g></svg>
