<?xml version="1.0" encoding="UTF-8" standalone="no"?>
<!-- Created with Inkscape (http://www.inkscape.org/) -->

<svg
   version="1.1"
   id="svg48"
   width="20mm"
   height="40mm"
   viewBox="0 0 1000 2000"
   sodipodi:docname="mini-din-3.svg"
   inkscape:version="1.2 (dc2aedaf03, 2022-05-15)"
   xmlns:inkscape="http://www.inkscape.org/namespaces/inkscape"
   xmlns:sodipodi="http://sodipodi.sourceforge.net/DTD/sodipodi-0.dtd"
   xmlns="http://www.w3.org/2000/svg"
   xmlns:svg="http://www.w3.org/2000/svg">
  <defs
     id="defs52" />
  <sodipodi:namedview
     id="namedview50"
     pagecolor="#ffffff"
     bordercolor="#111111"
     borderopacity="1"
     inkscape:showpageshadow="0"
     inkscape:pageopacity="0"
     inkscape:pagecheckerboard="1"
     inkscape:deskcolor="#d1d1d1"
     showgrid="false"
     inkscape:zoom="4"
     inkscape:cx="-19.75"
     inkscape:cy="117.25"
     inkscape:window-width="2560"
     inkscape:window-height="1375"
     inkscape:window-x="0"
     inkscape:window-y="0"
     inkscape:window-maximized="1"
     inkscape:current-layer="layer1"
     inkscape:document-units="mm" />
  <g
     inkscape:groupmode="layer"
     id="layer1"
     inkscape:label="F.SilkS"
     transform="translate(-50.034515,-50.034515)">
    <g
       id="g2100"
       style="fill:none;stroke:#000000;stroke-opacity:1"
       transform="translate(38.034494,1252.0897)" />
    <g
       id="g14315">
      <g
         aria-label="Power Input"
         id="text1139"
         style="font-size:141.111px;font-family:'DejaVu Sans';-inkscape-font-specification:'DejaVu Sans, Normal';text-align:center;letter-spacing:0px;word-spacing:0px;text-anchor:middle;fill:#000000;fill-opacity:1;stroke:none;stroke-width:0.05"
         transform="translate(-3.6868156e-7,542.01387)">
        <path
           d="m 154.12414,113.61141 v 38.65398 h 17.50108 q 9.71517,0 15.02062,-5.02984 5.30545,-5.02984 5.30545,-14.3316 0,-9.23286 -5.30545,-14.2627 -5.30545,-5.02984 -15.02062,-5.02984 z M 140.20595,102.1737 h 31.41927 q 17.29438,0 26.11383,7.85481 8.88834,7.78592 8.88834,22.87544 0,15.22732 -8.88834,23.01324 -8.81945,7.78591 -26.11383,7.78591 h -17.50108 v 41.34115 h -13.91819 z"
           id="path1395"
           style="fill:#000000;fill-opacity:1;stroke:none" />
        <path
           d="m 249.62218,136.76246 q -10.19748,0 -16.12304,7.99262 -5.92557,7.92372 -5.92557,21.773 0,13.84929 5.85666,21.84191 5.92557,7.92372 16.19195,7.92372 10.12858,0 16.05415,-7.99262 5.92556,-7.99263 5.92556,-21.77301 0,-13.71148 -5.92556,-21.7041 -5.92557,-8.06152 -16.05415,-8.06152 z m 0,-10.7487 q 16.53646,0 25.97602,10.7487 9.43956,10.74869 9.43956,29.76562 0,18.94803 -9.43956,29.76563 -9.43956,10.7487 -25.97602,10.7487 -16.60536,0 -26.04492,-10.7487 -9.37066,-10.8176 -9.37066,-29.76563 0,-19.01693 9.37066,-29.76562 9.43956,-10.7487 26.04492,-10.7487 z"
           id="path1397"
           style="fill:#000000;fill-opacity:1;stroke:none" />
        <path
           d="m 298.68033,127.87411 h 12.67795 l 15.84744,60.22027 15.77854,-60.22027 h 14.95172 l 15.84744,60.22027 15.77853,-60.22027 h 12.67795 l -20.18826,77.17014 h -14.95171 l -16.60536,-63.25195 -16.67426,63.25195 h -14.95172 z"
           id="path1399"
           style="fill:#000000;fill-opacity:1;stroke:none" />
        <path
           d="m 487.47157,163.28969 v 6.20117 h -58.29101 q 0.82682,13.09137 7.85481,19.98156 7.0969,6.82129 19.70595,6.82129 7.3036,0 14.12489,-1.79145 6.89019,-1.79145 13.64258,-5.37435 v 11.98893 q -6.82129,2.89388 -13.98709,4.40972 -7.1658,1.51585 -14.5383,1.51585 -18.46571,0 -29.28331,-10.7487 -10.7487,-10.7487 -10.7487,-29.07661 0,-18.94802 10.19748,-30.04123 10.26639,-11.16211 27.62967,-11.16211 15.57183,0 24.59798,10.05968 9.09505,9.99077 9.09505,27.21625 z m -12.67795,-3.7207 q -0.1378,-10.40419 -5.85666,-16.60536 -5.64996,-6.20117 -15.02062,-6.20117 -10.61089,0 -17.01877,5.99446 -6.33898,5.99447 -7.3036,16.88097 z"
           id="path1401"
           style="fill:#000000;fill-opacity:1;stroke:none" />
        <path
           d="m 552.99729,139.72524 q -2.13596,-1.24024 -4.68533,-1.79145 -2.48047,-0.62012 -5.51215,-0.62012 -10.7487,0 -16.53646,7.028 -5.71886,6.95909 -5.71886,20.05045 v 40.65213 h -12.74686 v -77.17014 h 12.74686 v 11.98893 q 3.99631,-7.02799 10.40419,-10.40419 6.40787,-3.44509 15.57183,-3.44509 1.30914,0 2.89388,0.2067 1.58474,0.13781 3.514,0.48232 z"
           id="path1403"
           style="fill:#000000;fill-opacity:1;stroke:none" />
        <path
           d="m 611.70171,102.1737 h 13.91818 v 102.87055 h -13.91818 z"
           id="path1405"
           style="fill:#000000;fill-opacity:1;stroke:none" />
        <path
           d="m 716.91496,158.46656 v 46.57769 h -12.67795 v -46.16428 q 0,-10.9554 -4.27192,-16.39866 -4.27192,-5.44325 -12.81575,-5.44325 -10.26639,0 -16.19195,6.54569 -5.92557,6.54568 -5.92557,17.84559 v 43.61491 h -12.74685 v -77.17014 h 12.74685 v 11.98893 q 4.54753,-6.95909 10.6798,-10.40419 6.20117,-3.44509 14.2627,-3.44509 13.29806,0 20.11935,8.26823 6.82129,8.19932 6.82129,24.18457 z"
           id="path1407"
           style="fill:#000000;fill-opacity:1;stroke:none" />
        <path
           d="m 754.46646,193.46873 v 40.92773 H 741.7196 V 127.87411 h 12.74686 v 11.71332 q 3.99631,-6.89019 10.05967,-10.19748 6.13227,-3.37619 14.60721,-3.37619 14.05599,0 22.80653,11.16211 8.81945,11.16211 8.81945,29.35221 0,18.19011 -8.81945,29.35222 -8.75054,11.16211 -22.80653,11.16211 -8.47494,0 -14.60721,-3.3073 -6.06336,-3.37619 -10.05967,-10.26638 z m 43.13259,-26.94065 q 0,-13.98709 -5.78776,-21.91081 -5.71886,-7.99262 -15.77854,-7.99262 -10.05968,0 -15.84744,7.99262 -5.71885,7.92372 -5.71885,21.91081 0,13.98709 5.71885,21.97971 5.78776,7.92372 15.84744,7.92372 10.05968,0 15.77854,-7.92372 5.78776,-7.99262 5.78776,-21.97971 z"
           id="path1409"
           style="fill:#000000;fill-opacity:1;stroke:none" />
        <path
           d="m 830.46529,174.58961 v -46.7155 h 12.67795 v 46.23318 q 0,10.95541 4.27192,16.46756 4.27192,5.44325 12.81575,5.44325 10.26639,0 16.19195,-6.54568 5.99447,-6.54568 5.99447,-17.8456 v -43.75271 h 12.67795 v 77.17014 h -12.67795 v -11.85113 q -4.61643,7.028 -10.7487,10.47309 -6.06337,3.3762 -14.12489,3.3762 -13.29807,0 -20.18826,-8.26823 -6.89019,-8.26823 -6.89019,-24.18457 z m 31.90158,-48.57585 z"
           id="path1411"
           style="fill:#000000;fill-opacity:1;stroke:none" />
        <path
           d="m 933.74926,105.9633 v 21.91081 h 26.11383 v 9.85297 h -26.11383 v 41.89237 q 0,9.43956 2.54938,12.12673 2.61827,2.68718 10.54199,2.68718 h 13.02246 v 10.61089 h -13.02246 q -14.67611,0 -20.25716,-5.44325 -5.58106,-5.51215 -5.58106,-19.98155 v -41.89237 h -9.30176 v -9.85297 h 9.30176 V 105.9633 Z"
           id="path1413"
           style="fill:#000000;fill-opacity:1;stroke:none" />
      </g>
      <g
         id="g14283">
        <g
           id="g3893"
           transform="matrix(0.24179371,0,0,0.24179371,417.03963,1640.2913)"
           style="fill:none;stroke:#000000;stroke-width:4.13577;stroke-opacity:1">
          <path
             id="path1886"
             style="fill:none;stroke:#000000;stroke-width:41.3577;stroke-linecap:round;stroke-linejoin:round;stroke-opacity:1"
             d="m 299.79278,547.57758 a 44.863747,44.863747 0 0 1 -44.86375,44.86374 44.863747,44.863747 0 0 1 -44.86375,-44.86374 44.863747,44.863747 0 0 1 44.86375,-44.86375 44.863747,44.863747 0 0 1 44.86375,44.86375 z"
             transform="translate(38.034494)" />
          <path
             id="path1886-6"
             style="fill:none;stroke:#000000;stroke-width:41.3577;stroke-linecap:round;stroke-linejoin:round;stroke-opacity:1"
             d="M 556.86375,338.84726 A 44.863747,44.863747 0 0 1 512,383.71101 44.863747,44.863747 0 0 1 467.13625,338.84726 44.863747,44.863747 0 0 1 512,293.98351 a 44.863747,44.863747 0 0 1 44.86375,44.86375 z"
             transform="translate(38.034494)" />
          <path
             id="path1886-7"
             style="fill:none;stroke:#000000;stroke-width:41.3577;stroke-linecap:round;stroke-linejoin:round;stroke-opacity:1"
             d="m 813.93473,547.57758 c 0,24.77756 -20.08619,44.86374 -44.86375,44.86374 -24.77756,0 -44.86374,-20.08618 -44.86374,-44.86374 0,-24.77756 20.08618,-44.86375 44.86374,-44.86375 24.77757,0 44.86375,20.08618 44.86375,44.86375 z"
             sodipodi:nodetypes="sssss"
             transform="translate(38.034494)" />
          <path
             id="path2235"
             style="fill:none;stroke:#000000;stroke-width:41.3577;stroke-linecap:round;stroke-linejoin:round;stroke-dasharray:none;stroke-opacity:1"
             d="M 463.10707,205.47024 V 121.62818 C 284.07559,161.31764 150.18697,321.02361 150.18697,512 c 0,69.37197 18.02763,136.88557 51.48838,196.27696 h 150.86707 v 151.3948 c 59.68482,33.90115 127.64663,52.17577 197.49208,52.17577 69.86556,0 137.84633,-18.28514 197.54365,-52.2051 V 708.32862 H 898.36451 C 931.84392,648.92469 949.88203,581.39201 949.88203,512 v 0 c 0,-106.04583 -42.12688,-207.74915 -117.11263,-282.7349 C 778.62094,175.11664 710.54039,138.10237 636.95359,121.71256 v 83.75768 z"
             sodipodi:nodetypes="cscccscccssscccc" />
          <path
             style="fill:none;stroke:#000000;stroke-width:41.3577;stroke-linecap:round;stroke-linejoin:round;stroke-dasharray:none;stroke-opacity:1"
             d="M 479.66762,566.24378 V 755.05874 H 620.40138 V 566.24378 Z"
             id="path2331"
             sodipodi:nodetypes="ccccc" />
        </g>
        <g
           aria-label="-12"
           id="text4052"
           style="font-size:105.833px;line-height:1.25;font-family:'DejaVu Sans';-inkscape-font-specification:'DejaVu Sans, Normal';text-align:center;letter-spacing:0px;word-spacing:0px;text-anchor:middle;fill:none;stroke:#000000;stroke-width:13.2292;stroke-opacity:1"
           transform="translate(-165.15423,1267.2145)">
          <path
             d="m 818.67632,596.12256 h 27.85351 v 8.47491 h -27.85351 z"
             style="fill:#000000;stroke:none"
             id="path4184" />
          <path
             d="m 864.82323,620.56544 h 17.05317 v -58.85927 l -18.55178,3.72069 v -9.50844 l 18.44843,-3.72069 h 10.4386 v 68.36771 h 17.05317 v 8.78496 h -44.44159 z"
             style="fill:#000000;stroke:none"
             id="path4181" />
          <path
             d="m 939.34042,620.56544 h 36.43177 v 8.78496 h -48.98911 v -8.78496 q 5.94278,-6.14948 16.17468,-16.48473 10.28357,-10.38693 12.91906,-13.38416 5.0126,-5.63271 6.9763,-9.50843 2.01538,-3.9274 2.01538,-7.69976 0,-6.14948 -4.34081,-10.0252 -4.28913,-3.87572 -11.21375,-3.87572 -4.90925,0 -10.38693,1.70532 -5.42601,1.70531 -11.62716,5.16762 v -10.54196 q 6.3045,-2.53213 11.78219,-3.82404 5.47768,-1.29191 10.02519,-1.29191 11.9889,0 19.12022,5.99445 7.13133,5.99445 7.13133,16.01964 0,4.75422 -1.80867,9.04335 -1.75699,4.23746 -6.45954,10.0252 -1.2919,1.49861 -8.21652,8.68161 -6.92462,7.13133 -19.53363,19.99872 z"
             style="fill:#000000;stroke:none"
             id="path4178" />
        </g>
        <g
           aria-label="+12"
           id="text3994"
           style="font-size:105.833px;line-height:1.25;font-family:'DejaVu Sans';-inkscape-font-specification:'DejaVu Sans, Normal';text-align:center;letter-spacing:0px;word-spacing:0px;text-anchor:middle;fill:none;stroke:#000000;stroke-width:13.2292;stroke-opacity:1"
           transform="translate(365.53637,1000.6158)">
          <path
             d="m 121.19471,562.99807 v 28.78368 h 28.78368 v 8.78497 h -28.78368 v 28.78368 h -8.68162 V 600.56672 H 83.729412 v -8.78497 h 28.783678 v -28.78368 z"
             style="fill:#000000;stroke:none"
             id="path4193" />
          <path
             d="m 174.31791,620.56544 h 17.05317 v -58.85927 l -18.55178,3.72069 v -9.50844 l 18.44843,-3.72069 h 10.4386 v 68.36771 h 17.05317 v 8.78496 h -44.44159 z"
             style="fill:#000000;stroke:none"
             id="path4190" />
          <path
             d="m 248.83509,620.56544 h 36.43177 v 8.78496 h -48.98911 v -8.78496 q 5.94277,-6.14948 16.17467,-16.48473 10.28358,-10.38693 12.91907,-13.38416 5.0126,-5.63271 6.9763,-9.50843 2.01537,-3.9274 2.01537,-7.69976 0,-6.14948 -4.3408,-10.0252 -4.28913,-3.87572 -11.21375,-3.87572 -4.90925,0 -10.38693,1.70532 -5.42601,1.70531 -11.62717,5.16762 v -10.54196 q 6.30451,-2.53213 11.78219,-3.82404 5.47769,-1.29191 10.0252,-1.29191 11.9889,0 19.12022,5.99445 7.13133,5.99445 7.13133,16.01964 0,4.75422 -1.80867,9.04335 -1.757,4.23746 -6.45954,10.0252 -1.2919,1.49861 -8.21652,8.68161 -6.92462,7.13133 -19.53363,19.99872 z"
             style="fill:#000000;stroke:none"
             id="path4187" />
        </g>
        <g
           aria-label="GND"
           id="text3998-9"
           style="font-size:105.833px;line-height:1.25;font-family:'DejaVu Sans';-inkscape-font-specification:'DejaVu Sans, Normal';text-align:center;letter-spacing:0px;word-spacing:0px;text-anchor:middle;fill:none;stroke:#000000;stroke-width:13.2292;stroke-opacity:1"
           transform="translate(-223.27719,1645.1457)">
          <path
             d="M 491.84701,239.66278 V 218.9406 h -17.05317 v -8.57826 h 27.38842 v 33.12449 q -6.04612,4.28913 -13.33248,6.51121 -7.28635,2.1704 -15.55456,2.1704 -18.08669,0 -28.31859,-10.54196 -10.18023,-10.59363 -10.18023,-29.45547 0,-18.91352 10.18023,-29.45547 10.2319,-10.59364 28.31859,-10.59364 7.54474,0 14.31433,1.86035 6.82127,1.86034 12.55734,5.47768 v 11.1104 q -5.78775,-4.90925 -12.29896,-7.38971 -6.51121,-2.48046 -13.69421,-2.48046 -14.1593,0 -21.29062,7.90647 -7.07965,7.90647 -7.07965,23.56438 0,15.60623 7.07965,23.5127 7.13132,7.90647 21.29062,7.90647 5.52936,0 9.87017,-0.93017 4.34081,-0.98185 7.80312,-2.99723 z"
             style="fill:#000000;stroke:none"
             id="path4202-6" />
          <path
             d="m 521.2508,173.51716 h 14.05595 l 34.20969,64.54366 v -64.54366 h 10.12855 v 77.15267 h -14.05595 l -34.20969,-64.54366 v 64.54366 H 521.2508 Z"
             style="fill:#000000;stroke:none"
             id="path4199-4" />
          <path
             d="m 610.85745,182.09542 v 59.99615 h 12.60901 q 15.96797,0 23.35768,-7.23468 7.44138,-7.23468 7.44138,-22.84091 0,-15.50288 -7.44138,-22.68588 -7.38971,-7.23468 -23.35768,-7.23468 z m -10.4386,-8.57826 h 21.44565 q 22.4275,0 32.91778,9.3534 10.49029,9.30173 10.49029,29.14542 0,19.94704 -10.54196,29.30045 -10.54196,9.3534 -32.86611,9.3534 h -21.44565 z"
             style="fill:#000000;stroke:none"
             id="path4196-3" />
        </g>
      </g>
    </g>
  </g>
  <g
     inkscape:groupmode="layer"
     id="layer4"
     inkscape:label="F.Fab">
    <path
       style="fill:none;stroke:#000000;stroke-width:0.132292;stroke-linecap:butt;stroke-linejoin:miter;stroke-dasharray:none;stroke-opacity:1"
       d="m 516.51012,1714.0552 h -16.51013 v -22.9859"
       id="path4502"
       sodipodi:nodetypes="ccc" />
  </g>
</svg>
