<?xml version="1.0" encoding="UTF-8" standalone="no"?>
<!-- Created with Inkscape (http://www.inkscape.org/) -->

<svg
   width="210mm"
   height="297mm"
   viewBox="0 0 210 297"
   version="1.1"
   id="svg5"
   inkscape:version="1.2 (dc2aedaf03, 2022-05-15)"
   sodipodi:docname="output_label.svg"
   xmlns:inkscape="http://www.inkscape.org/namespaces/inkscape"
   xmlns:sodipodi="http://sodipodi.sourceforge.net/DTD/sodipodi-0.dtd"
   xmlns="http://www.w3.org/2000/svg"
   xmlns:svg="http://www.w3.org/2000/svg">
  <sodipodi:namedview
     id="namedview7"
     pagecolor="#ffffff"
     bordercolor="#111111"
     borderopacity="1"
     inkscape:showpageshadow="0"
     inkscape:pageopacity="0"
     inkscape:pagecheckerboard="1"
     inkscape:deskcolor="#d1d1d1"
     inkscape:document-units="mm"
     showgrid="false"
     inkscape:zoom="53.821773"
     inkscape:cx="345.77085"
     inkscape:cy="560.05216"
     inkscape:window-width="2560"
     inkscape:window-height="1375"
     inkscape:window-x="0"
     inkscape:window-y="0"
     inkscape:window-maximized="1"
     inkscape:current-layer="text1936" />
  <defs
     id="defs2" />
  <g
     inkscape:label="F.SilkS"
     inkscape:groupmode="layer"
     id="layer1"
     transform="translate(45.689178,64.681359)">
    <g
       aria-label="Balanced Output"
       id="text1936"
       style="font-size:3.175px;font-family:'DejaVu Sans';-inkscape-font-specification:'DejaVu Sans';text-align:center;letter-spacing:0px;word-spacing:0px;text-anchor:middle;stroke-width:0.001;fill:#000000;fill-opacity:1;stroke:none;stroke-dasharray:none">
      <path
         d="m 46.45967,83.589198 c 0,0.28267 0,0.565341 0,0.848011 0.202158,-0.0023 0.404643,0.0052 0.606544,-0.005 0.155709,-0.01006 0.324841,-0.09026 0.368402,-0.252325 0.04278,-0.157458 0.03662,-0.351103 -0.0842,-0.473608 -0.147302,-0.135064 -0.356383,-0.11585 -0.541688,-0.117108 -0.116353,0 -0.232705,0 -0.349058,0 z m 0,-0.95188 c 0,0.232544 0,0.465088 0,0.697632 0.190274,-0.0024 0.380908,0.0054 0.570895,-0.0053 0.138321,-0.0099 0.293626,-0.07733 0.330963,-0.223587 0.04281,-0.147418 0.0069,-0.339518 -0.143256,-0.411408 -0.169914,-0.08273 -0.362519,-0.05075 -0.544785,-0.05731 -0.07127,10e-7 -0.142545,2e-6 -0.213817,3e-6 z M 46.146511,82.37997 c 0.302602,0.0019 0.605381,-0.0041 0.907851,0.0036 0.224611,0.01219 0.477179,0.09732 0.583099,0.312313 0.07777,0.169383 0.07443,0.378035 -0.01081,0.543934 -0.06466,0.119289 -0.194256,0.188033 -0.325174,0.206721 0.218051,0.03866 0.414313,0.202211 0.465556,0.421551 0.0584,0.235846 0.0037,0.519619 -0.202956,0.667849 -0.206539,0.155674 -0.474675,0.162713 -0.722822,0.158586 -0.231582,0 -0.463164,0 -0.694746,0 0,-0.771529 10e-7,-1.543058 10e-7,-2.314587 z"
         id="path2814"
         style="fill:#000000;fill-opacity:1;stroke:none;stroke-width:0.001;stroke-dasharray:none" />
      <path
         d="m 49.101369,83.821742 q -0.345715,0 -0.479041,0.07906 -0.133325,0.07906 -0.133325,0.269751 0,0.151929 0.09922,0.241846 0.100769,0.08837 0.272851,0.08837 0.237195,0 0.379822,-0.167432 0.144178,-0.168982 0.144178,-0.448035 v -0.06356 z m 0.568957,-0.117822 v 0.990637 h -0.285253 v -0.26355 q -0.09767,0.15813 -0.243396,0.234095 -0.145728,0.07441 -0.356568,0.07441 -0.26665,0 -0.42478,-0.148828 -0.15658,-0.150379 -0.15658,-0.401526 0,-0.293006 0.195337,-0.441834 0.196887,-0.148828 0.586011,-0.148828 h 0.399976 v -0.02791 q 0,-0.196887 -0.130225,-0.303858 -0.128674,-0.10852 -0.362769,-0.10852 -0.148828,0 -0.289904,0.03566 -0.141077,0.03566 -0.271302,0.10697 v -0.26355 q 0.15658,-0.06046 0.303858,-0.08992 0.147278,-0.03101 0.286804,-0.03101 0.376721,0 0.562756,0.195337 0.186035,0.195337 0.186035,0.592212 z"
         id="path2811"
         style="fill:#000000;fill-opacity:1;stroke:none;stroke-width:0.001;stroke-dasharray:none" />
      <path
         d="m 50.257887,82.282301 h 0.285254 v 2.412256 h -0.285254 z"
         id="path2808"
         style="fill:#000000;fill-opacity:1;stroke:none;stroke-width:0.001;stroke-dasharray:none" />
      <path
         d="m 51.929103,83.821742 q -0.345715,0 -0.47904,0.07906 -0.133325,0.07906 -0.133325,0.269751 0,0.151929 0.09922,0.241846 0.100769,0.08837 0.272852,0.08837 0.237195,0 0.379822,-0.167432 0.144177,-0.168982 0.144177,-0.448035 v -0.06356 z m 0.568958,-0.117822 v 0.990637 h -0.285254 v -0.26355 q -0.09767,0.15813 -0.243396,0.234095 -0.145728,0.07441 -0.356567,0.07441 -0.266651,0 -0.424781,-0.148828 -0.156579,-0.150379 -0.156579,-0.401526 0,-0.293006 0.195337,-0.441834 0.196887,-0.148828 0.58601,-0.148828 h 0.399976 v -0.02791 q 0,-0.196887 -0.130225,-0.303858 -0.128674,-0.10852 -0.362768,-0.10852 -0.148828,0 -0.289905,0.03566 -0.141077,0.03566 -0.271301,0.10697 v -0.26355 q 0.156579,-0.06046 0.303857,-0.08992 0.147278,-0.03101 0.286804,-0.03101 0.376722,0 0.562757,0.195337 0.186035,0.195337 0.186035,0.592212 z"
         id="path2805"
         style="fill:#000000;fill-opacity:1;stroke:none;stroke-width:0.001;stroke-dasharray:none" />
      <path
         d="m 54.528945,83.646559 v 1.047998 h -0.285254 v -1.038696 q 0,-0.246497 -0.09612,-0.36897 -0.09612,-0.122473 -0.288355,-0.122473 -0.230994,0 -0.364319,0.147278 -0.133325,0.147278 -0.133325,0.401526 v 0.981335 H 53.07477 v -1.736328 h 0.286804 v 0.269751 q 0.102319,-0.15658 0.240295,-0.234094 0.139527,-0.07752 0.320911,-0.07752 0.299207,0 0.452686,0.186035 0.153479,0.184485 0.153479,0.544153 z"
         id="path2802"
         style="fill:#000000;fill-opacity:1;stroke:none;stroke-width:0.001;stroke-dasharray:none" />
      <path
         d="m 56.347438,83.024892 v 0.26665 q -0.120923,-0.06666 -0.243396,-0.09922 -0.120923,-0.03411 -0.244946,-0.03411 -0.277503,0 -0.430982,0.176733 -0.153479,0.175183 -0.153479,0.492993 0,0.31781 0.153479,0.494544 0.153479,0.175183 0.430982,0.175183 0.124023,0 0.244946,-0.03256 0.122473,-0.03411 0.243396,-0.100769 v 0.26355 q -0.119373,0.05581 -0.248047,0.08371 -0.127124,0.02791 -0.271301,0.02791 -0.392224,0 -0.623218,-0.246497 -0.230994,-0.246496 -0.230994,-0.665076 0,-0.42478 0.232544,-0.668176 0.234095,-0.243396 0.640271,-0.243396 0.131775,0 0.257349,0.02791 0.125574,0.02635 0.243396,0.08062 z"
         id="path2799"
         style="fill:#000000;fill-opacity:1;stroke:none;stroke-width:0.001;stroke-dasharray:none" />
      <path
         d="m 58.328713,83.75508 v 0.139526 h -1.311548 q 0.0186,0.294556 0.176733,0.449585 0.159681,0.153479 0.443384,0.153479 0.164331,0 0.31781,-0.04031 0.15503,-0.04031 0.306958,-0.120922 v 0.26975 q -0.153479,0.06511 -0.314709,0.09922 -0.161231,0.03411 -0.327112,0.03411 -0.415479,0 -0.658875,-0.241846 -0.241845,-0.241846 -0.241845,-0.654224 0,-0.42633 0.229443,-0.675927 0.230994,-0.251148 0.621668,-0.251148 0.350366,0 0.553454,0.226343 0.204639,0.224792 0.204639,0.612366 z m -0.285254,-0.08372 q -0.0031,-0.234094 -0.131775,-0.373621 -0.127124,-0.139526 -0.337964,-0.139526 -0.238745,0 -0.382922,0.134875 -0.142627,0.134876 -0.164331,0.379822 z"
         id="path2796"
         style="fill:#000000;fill-opacity:1;stroke:none;stroke-width:0.001;stroke-dasharray:none" />
      <path
         d="m 59.939467,83.221779 v -0.939478 h 0.285254 v 2.412256 h -0.285254 v -0.260449 q -0.08992,0.155029 -0.227893,0.230994 -0.136426,0.07441 -0.328662,0.07441 -0.314709,0 -0.513147,-0.251148 -0.196887,-0.251147 -0.196887,-0.660425 0,-0.409277 0.196887,-0.660424 0.198438,-0.251148 0.513147,-0.251148 0.192236,0 0.328662,0.07596 0.137976,0.07441 0.227893,0.229443 z m -0.972033,0.606164 q 0,0.31471 0.128674,0.494544 0.130224,0.178284 0.356567,0.178284 0.226343,0 0.356568,-0.178284 0.130224,-0.179834 0.130224,-0.494544 0,-0.314709 -0.130224,-0.492993 -0.130225,-0.179834 -0.356568,-0.179834 -0.226343,0 -0.356567,0.179834 -0.128674,0.178284 -0.128674,0.492993 z"
         id="path2793"
         style="fill:#000000;fill-opacity:1;stroke:none;stroke-width:0.001;stroke-dasharray:none" />
      <path
         d="m 62.773402,82.59236 q -0.341064,0 -0.542602,0.254248 -0.199988,0.254248 -0.199988,0.692981 0,0.437183 0.199988,0.691431 0.201538,0.254248 0.542602,0.254248 0.341065,0 0.539502,-0.254248 0.199988,-0.254248 0.199988,-0.691431 0,-0.438733 -0.199988,-0.692981 -0.198437,-0.254248 -0.539502,-0.254248 z m 0,-0.254248 q 0.486792,0 0.778247,0.327112 0.291455,0.325561 0.291455,0.874365 0,0.547253 -0.291455,0.874365 -0.291455,0.325562 -0.778247,0.325562 -0.488342,0 -0.781347,-0.325562 -0.291456,-0.325561 -0.291456,-0.874365 0,-0.548804 0.291456,-0.874365 0.293005,-0.327112 0.781347,-0.327112 z"
         id="path2790"
         style="fill:#000000;fill-opacity:1;stroke:none;stroke-width:0.001;stroke-dasharray:none" />
      <path
         d="m 64.29114,84.009328 v -1.051099 h 0.285254 v 1.040247 q 0,0.246496 0.09612,0.37052 0.09612,0.122473 0.288354,0.122473 0.230994,0 0.364319,-0.147278 0.134876,-0.147278 0.134876,-0.401526 v -0.984436 h 0.285254 v 1.736328 h -0.285254 v -0.26665 q -0.10387,0.15813 -0.241846,0.235644 -0.136426,0.07596 -0.31781,0.07596 -0.299207,0 -0.454236,-0.186035 -0.155029,-0.186036 -0.155029,-0.544153 z m 0.717785,-1.092957 z"
         id="path2787"
         style="fill:#000000;fill-opacity:1;stroke:none;stroke-width:0.001;stroke-dasharray:none" />
      <path
         d="m 66.615028,82.465236 v 0.492993 h 0.587561 v 0.221692 h -0.587561 v 0.942578 q 0,0.21239 0.05736,0.272852 0.05891,0.06046 0.237195,0.06046 h 0.293005 v 0.238745 h -0.293005 q -0.330213,0 -0.455786,-0.122473 -0.125574,-0.124023 -0.125574,-0.449585 v -0.942578 h -0.20929 v -0.221692 h 0.20929 v -0.492993 z"
         id="path2784"
         style="fill:#000000;fill-opacity:1;stroke:none;stroke-width:0.001;stroke-dasharray:none" />
      <path
         d="m 67.853713,84.434108 v 0.920874 h -0.286804 v -2.396753 h 0.286804 v 0.26355 q 0.08992,-0.155029 0.226343,-0.229443 0.137976,-0.07596 0.328662,-0.07596 0.31626,0 0.513147,0.251148 0.198438,0.251147 0.198438,0.660424 0,0.409278 -0.198438,0.660425 -0.196887,0.251148 -0.513147,0.251148 -0.190686,0 -0.328662,-0.07441 -0.136426,-0.07597 -0.226343,-0.230994 z m 0.970484,-0.606165 q 0,-0.314709 -0.130225,-0.492993 -0.128674,-0.179834 -0.355017,-0.179834 -0.226343,0 -0.356567,0.179834 -0.128675,0.178284 -0.128675,0.492993 0,0.31471 0.128675,0.494544 0.130224,0.178284 0.356567,0.178284 0.226343,0 0.355017,-0.178284 0.130225,-0.179834 0.130225,-0.494544 z"
         id="path2781"
         style="fill:#000000;fill-opacity:1;stroke:none;stroke-width:0.001;stroke-dasharray:none" />
      <path
         d="m 69.563687,84.009328 v -1.051099 h 0.285253 v 1.040247 q 0,0.246496 0.09612,0.37052 0.09612,0.122473 0.288354,0.122473 0.230994,0 0.364319,-0.147278 0.134875,-0.147278 0.134875,-0.401526 v -0.984436 h 0.285254 v 1.736328 h -0.285254 v -0.26665 q -0.103869,0.15813 -0.241845,0.235644 -0.136426,0.07596 -0.31781,0.07596 -0.299207,0 -0.454236,-0.186035 -0.155029,-0.186036 -0.155029,-0.544153 z m 0.717785,-1.092957 z"
         id="path2778"
         style="fill:#000000;fill-opacity:1;stroke:none;stroke-width:0.001;stroke-dasharray:none" />
      <path
         d="m 71.887575,82.465236 v 0.492993 h 0.587561 v 0.221692 h -0.587561 v 0.942578 q 0,0.21239 0.05736,0.272852 0.05891,0.06046 0.237195,0.06046 h 0.293005 v 0.238745 h -0.293005 q -0.330213,0 -0.455787,-0.122473 -0.125573,-0.124023 -0.125573,-0.449585 v -0.942578 h -0.20929 v -0.221692 h 0.20929 v -0.492993 z"
         id="path2775"
         style="fill:#000000;fill-opacity:1;stroke:none;stroke-width:0.001;stroke-dasharray:none" />
    </g>
  </g>
</svg>
