<?xml version="1.0" encoding="UTF-8" standalone="no"?>
<!-- Created with Inkscape (http://www.inkscape.org/) -->

<svg
   width="40mm"
   height="10mm"
   viewBox="0 0 40 10"
   version="1.1"
   id="svg5"
   inkscape:version="1.2.1 (9c6d41e410, 2022-07-14, custom)"
   sodipodi:docname="unbal2bal.svg"
   xmlns:inkscape="http://www.inkscape.org/namespaces/inkscape"
   xmlns:sodipodi="http://sodipodi.sourceforge.net/DTD/sodipodi-0.dtd"
   xmlns="http://www.w3.org/2000/svg"
   xmlns:svg="http://www.w3.org/2000/svg">
  <sodipodi:namedview
     id="namedview7"
     pagecolor="#ffffff"
     bordercolor="#111111"
     borderopacity="1"
     inkscape:showpageshadow="0"
     inkscape:pageopacity="0"
     inkscape:pagecheckerboard="1"
     inkscape:deskcolor="#d1d1d1"
     inkscape:document-units="mm"
     showgrid="false"
     inkscape:zoom="9.5144352"
     inkscape:cx="69.473383"
     inkscape:cy="-5.4653796"
     inkscape:window-width="2560"
     inkscape:window-height="1375"
     inkscape:window-x="0"
     inkscape:window-y="0"
     inkscape:window-maximized="1"
     inkscape:current-layer="layer1" />
  <defs
     id="defs2" />
  <g
     inkscape:label="F.SilkS"
     inkscape:groupmode="layer"
     id="layer1">
    <g
       aria-label="unbal2bal"
       id="text236"
       style="font-size:4.93889px;line-height:1.25;font-family:'DejaVu Sans';-inkscape-font-specification:'DejaVu Sans';text-align:center;letter-spacing:0px;word-spacing:0px;text-anchor:middle;display:inline;stroke-width:0.225;fill:none;stroke:#000000;stroke-opacity:1;stroke-dasharray:none;stroke-linecap:butt;stroke-linejoin:bevel;stroke-miterlimit:0;paint-order:normal"
       inkscape:label="text236">
      <path
         d="M 7.6156835,4.7098014 7.9002484,3.0602893 H 8.6791847 L 8.4332048,4.4662331 q -0.024116,0.1374593 -0.038585,0.233922 -0.012058,0.096463 -0.012058,0.1519288 0,0.1519287 0.074759,0.2363336 0.07717,0.084405 0.2170411,0.084405 0.2411567,0 0.4147896,-0.2073948 Q 9.262784,4.7580327 9.3278963,4.3890629 L 9.5618184,3.0602893 H 10.343166 L 9.870499,5.7612448 H 9.0867396 L 9.1590866,5.3657477 Q 8.9589265,5.5996698 8.7394739,5.715425 8.5200213,5.8311802 8.2788645,5.8311802 q -0.3327963,0 -0.5160754,-0.1953369 -0.1808675,-0.195337 -0.1808675,-0.552249 0,-0.084405 0.00723,-0.1784559 0.00965,-0.094051 0.026527,-0.195337 z"
         style="font-style:oblique;font-weight:bold;font-stretch:semi-condensed;-inkscape-font-specification:'DejaVu Sans, Bold Oblique Semi-Condensed';fill:none;stroke:#000000;stroke-opacity:1;stroke-width:0.225;stroke-dasharray:none;stroke-linecap:butt;stroke-linejoin:bevel;stroke-miterlimit:0;paint-order:normal"
         id="path4365" />
      <path
         d="m 13.345568,4.1165558 -0.289388,1.644689 h -0.778937 l 0.24598,-1.4083554 q 0.02653,-0.1374593 0.03858,-0.2315104 0.01447,-0.096463 0.01447,-0.1519288 0,-0.1543403 -0.07717,-0.2387452 -0.07717,-0.084405 -0.217041,-0.084405 -0.241156,0 -0.414789,0.2098063 -0.171221,0.2073948 -0.238745,0.5763647 L 11.39461,5.7612448 h -0.778937 l 0.472668,-2.7009555 h 0.781347 l -0.07235,0.3954971 q 0.21463,-0.2339221 0.431671,-0.3472657 0.217041,-0.1133437 0.453375,-0.1133437 0.337619,0 0.518487,0.195337 0.183279,0.1953369 0.183279,0.5498373 0,0.07717 -0.0096,0.1712213 -0.0096,0.094051 -0.02894,0.2049832 z"
         style="font-style:oblique;font-weight:bold;font-stretch:semi-condensed;-inkscape-font-specification:'DejaVu Sans, Bold Oblique Semi-Condensed';fill:none;stroke:#000000;stroke-opacity:1;stroke-width:0.225;stroke-dasharray:none;stroke-linecap:butt;stroke-linejoin:bevel;stroke-miterlimit:0;paint-order:normal"
         id="path4367" />
      <path
         d="m 15.446043,3.6221845 q -0.299035,0 -0.489548,0.3086806 -0.190514,0.3062691 -0.190514,0.7982288 0,0.2218642 0.106109,0.3496773 0.10852,0.1254015 0.299034,0.1254015 0.294211,0 0.484725,-0.3014459 0.190514,-0.3038575 0.190514,-0.7765247 0,-0.2459799 -0.103697,-0.3737929 Q 15.64138,3.6221845 15.446043,3.6221845 Z m -0.81511,1.7483864 -0.07235,0.3906739 H 13.77965 l 0.653535,-3.7523989 h 0.781347 l -0.253214,1.4469405 q 0.178456,-0.2363336 0.373793,-0.3472657 0.195337,-0.1133437 0.426847,-0.1133437 0.409967,0 0.648712,0.2893881 0.238745,0.2893881 0.238745,0.7885825 0,0.3110922 -0.08441,0.6053034 -0.08199,0.2942112 -0.238745,0.535368 -0.197749,0.3038575 -0.44614,0.4606093 -0.248391,0.1567519 -0.532956,0.1567519 -0.248392,0 -0.424436,-0.1109321 -0.173633,-0.1133436 -0.2918,-0.3496772 z"
         style="font-style:oblique;font-weight:bold;font-stretch:semi-condensed;-inkscape-font-specification:'DejaVu Sans, Bold Oblique Semi-Condensed';fill:none;stroke:#000000;stroke-opacity:1;stroke-width:0.225;stroke-dasharray:none;stroke-linecap:butt;stroke-linejoin:bevel;stroke-miterlimit:0;paint-order:normal"
         id="path4369" />
      <path
         d="m 18.286869,4.5458148 q -0.2918,0 -0.441317,0.1012858 -0.147105,0.098874 -0.147105,0.2942113 0,0.1471056 0.08682,0.2315104 0.08923,0.084405 0.243568,0.084405 0.236334,0 0.397909,-0.1591635 0.161575,-0.161575 0.214629,-0.4533746 l 0.01688,-0.098874 z M 19.499887,4.2202532 19.22738,5.7612448 h -0.776524 l 0.06511,-0.4003202 q -0.190514,0.2411567 -0.405143,0.356912 -0.212218,0.1133436 -0.46061,0.1133436 -0.344854,0 -0.547426,-0.1977485 -0.202571,-0.2001601 -0.202571,-0.5377795 0,-0.5160754 0.356912,-0.7885826 0.359323,-0.2749186 1.036974,-0.2749186 h 0.458198 l 0.0096,-0.067524 q 0.0048,-0.033762 0.0048,-0.048231 0.0024,-0.014469 0.0024,-0.026527 0,-0.1591635 -0.135047,-0.2387452 -0.135048,-0.081993 -0.402732,-0.081993 -0.241157,0 -0.467844,0.055466 -0.224276,0.055466 -0.434082,0.1663981 l 0.115755,-0.6583579 q 0.243568,-0.067524 0.499194,-0.1012858 0.255627,-0.036173 0.528134,-0.036173 0.540191,0 0.803052,0.2073948 0.26286,0.2049832 0.26286,0.6270075 0,0.081993 -0.0096,0.1808676 -0.0096,0.096463 -0.02894,0.2098063 z"
         style="font-style:oblique;font-weight:bold;font-stretch:semi-condensed;-inkscape-font-specification:'DejaVu Sans, Bold Oblique Semi-Condensed';fill:none;stroke:#000000;stroke-opacity:1;stroke-width:0.225;stroke-dasharray:none;stroke-linecap:butt;stroke-linejoin:bevel;stroke-miterlimit:0;paint-order:normal"
         id="path4371" />
      <path
         d="m 20.61162,2.0088459 h 0.781348 l -0.655946,3.7523989 h -0.778936 z"
         style="font-style:oblique;font-weight:bold;font-stretch:semi-condensed;-inkscape-font-specification:'DejaVu Sans, Bold Oblique Semi-Condensed';fill:none;stroke:#000000;stroke-opacity:1;stroke-width:0.225;stroke-dasharray:none;stroke-linecap:butt;stroke-linejoin:bevel;stroke-miterlimit:0;paint-order:normal"
         id="path4373" />
      <path
         d="m 22.429588,6.0787712 h 1.410767 l -0.120578,0.6824736 h -2.35369 l 0.12299,-0.6872967 1.377005,-1.1551408 q 0.226687,-0.1929254 0.344854,-0.3906739 0.118167,-0.1977485 0.118167,-0.3834392 0,-0.1977486 -0.12299,-0.3062691 -0.120579,-0.1085205 -0.340031,-0.1085205 -0.204983,0 -0.46061,0.09164 -0.253214,0.089228 -0.571541,0.2773303 l 0.139871,-0.7644669 q 0.294211,-0.1205783 0.578776,-0.1784559 0.284565,-0.060289 0.561895,-0.060289 0.494372,0 0.778937,0.2387451 0.284564,0.2363336 0.284564,0.6463001 0,0.3520888 -0.173632,0.6414769 -0.173633,0.2893881 -0.764467,0.7813478 z"
         style="font-style:oblique;font-weight:bold;font-stretch:semi-condensed;-inkscape-font-specification:'DejaVu Sans, Bold Oblique Semi-Condensed';letter-spacing:0.0264583px;baseline-shift:baseline;fill:none;stroke:#000000;stroke-opacity:1;stroke-width:0.225;stroke-dasharray:none;stroke-linecap:butt;stroke-linejoin:bevel;stroke-miterlimit:0;paint-order:normal"
         id="path4375" />
      <path
         d="m 26.264265,3.6221845 q -0.299034,0 -0.489548,0.3086806 -0.190514,0.3062691 -0.190514,0.7982288 0,0.2218642 0.106109,0.3496773 0.108521,0.1254015 0.299035,0.1254015 0.294211,0 0.484725,-0.3014459 0.190514,-0.3038575 0.190514,-0.7765247 0,-0.2459799 -0.103698,-0.3737929 -0.101286,-0.1302247 -0.296623,-0.1302247 z m -0.815109,1.7483864 -0.07235,0.3906739 h -0.778937 l 0.653535,-3.7523989 h 0.781348 L 25.77954,3.4557864 Q 25.957996,3.2194528 26.153333,3.1085207 26.34867,2.995177 26.580181,2.995177 q 0.409966,0 0.648711,0.2893881 0.238745,0.2893881 0.238745,0.7885825 0,0.3110922 -0.0844,0.6053034 -0.08199,0.2942112 -0.238746,0.535368 -0.197748,0.3038575 -0.44614,0.4606093 -0.248391,0.1567519 -0.532956,0.1567519 -0.248391,0 -0.424436,-0.1109321 -0.173633,-0.1133436 -0.291799,-0.3496772 z"
         style="font-style:oblique;font-weight:bold;font-stretch:semi-condensed;-inkscape-font-specification:'DejaVu Sans, Bold Oblique Semi-Condensed';fill:none;stroke:#000000;stroke-opacity:1;stroke-width:0.225;stroke-dasharray:none;stroke-linecap:butt;stroke-linejoin:bevel;stroke-miterlimit:0;paint-order:normal"
         id="path4377" />
      <path
         d="m 29.105091,4.5458148 q -0.2918,0 -0.441317,0.1012858 -0.147105,0.098874 -0.147105,0.2942113 0,0.1471056 0.08682,0.2315104 0.08923,0.084405 0.243568,0.084405 0.236334,0 0.397909,-0.1591635 0.161575,-0.161575 0.214629,-0.4533746 l 0.01688,-0.098874 z m 1.213018,-0.3255616 -0.272507,1.5409916 h -0.776524 l 0.06511,-0.4003202 q -0.190514,0.2411567 -0.405143,0.356912 -0.212218,0.1133436 -0.46061,0.1133436 -0.344854,0 -0.547426,-0.1977485 -0.202571,-0.2001601 -0.202571,-0.5377795 0,-0.5160754 0.356912,-0.7885826 0.359323,-0.2749186 1.036974,-0.2749186 h 0.458198 l 0.0096,-0.067524 q 0.0048,-0.033762 0.0048,-0.048231 0.0024,-0.014469 0.0024,-0.026527 0,-0.1591635 -0.135048,-0.2387452 -0.135048,-0.081993 -0.402732,-0.081993 -0.241157,0 -0.467844,0.055466 -0.224276,0.055466 -0.434082,0.1663981 l 0.115755,-0.6583579 q 0.243568,-0.067524 0.499194,-0.1012858 0.255627,-0.036173 0.528134,-0.036173 0.540191,0 0.803052,0.2073948 0.262861,0.2049832 0.262861,0.6270075 0,0.081993 -0.0096,0.1808676 -0.0096,0.096463 -0.02894,0.2098063 z"
         style="font-style:oblique;font-weight:bold;font-stretch:semi-condensed;-inkscape-font-specification:'DejaVu Sans, Bold Oblique Semi-Condensed';fill:none;stroke:#000000;stroke-opacity:1;stroke-width:0.225;stroke-dasharray:none;stroke-linecap:butt;stroke-linejoin:bevel;stroke-miterlimit:0;paint-order:normal"
         id="path4379" />
      <path
         d="m 31.429841,2.0088459 h 0.781348 l -0.655946,3.7523989 h -0.778936 z"
         style="font-style:oblique;font-weight:bold;font-stretch:semi-condensed;-inkscape-font-specification:'DejaVu Sans, Bold Oblique Semi-Condensed';fill:none;stroke:#000000;stroke-opacity:1;stroke-width:0.225;stroke-dasharray:none;stroke-linecap:butt;stroke-linejoin:bevel;stroke-miterlimit:0;paint-order:normal"
         id="path4381" />
    </g>
  </g>
  <g
     inkscape:groupmode="layer"
     id="layer3"
     inkscape:label="Layer 2"
     style="display:none">
    <text
       xml:space="preserve"
       style="font-size:4.93889px;line-height:1.25;font-family:'DejaVu Sans';-inkscape-font-specification:'DejaVu Sans';text-align:center;letter-spacing:0px;word-spacing:0px;text-anchor:middle;display:inline;stroke-width:0.264583"
       x="19.737392"
       y="5.7612448"
       id="text4341"
       inkscape:label="text236"><tspan
         sodipodi:role="line"
         id="tspan4339"
         style="font-style:oblique;font-variant:normal;font-weight:bold;font-stretch:semi-condensed;font-size:4.93889px;font-family:'DejaVu Sans';-inkscape-font-specification:'DejaVu Sans, Bold Oblique Semi-Condensed';font-variant-ligatures:normal;font-variant-caps:normal;font-variant-numeric:normal;font-variant-east-asian:normal;stroke-width:0.264583"
         x="19.737392"
         y="5.7612448"
         dx="0 0 0 0 0 0 0.0099999998"
         dy="0 0 0 0 0 0 -1">unbal<tspan
   style="font-style:oblique;font-variant:normal;font-weight:bold;font-stretch:semi-condensed;font-size:4.93889px;font-family:'DejaVu Sans';-inkscape-font-specification:'DejaVu Sans, Bold Oblique Semi-Condensed';font-variant-ligatures:normal;font-variant-caps:normal;font-variant-numeric:normal;font-variant-east-asian:normal;letter-spacing:0.0264583px;baseline-shift:baseline"
   id="tspan4337"
   dx="-0.0099999998"
   dy="1">2</tspan>bal</tspan></text>
  </g>
</svg>
